<svg id="Layer_1" data-name="Layer 1" xmlns="http://www.w3.org/2000/svg" viewBox="0 0 350.05 350">
  <defs>
    <style>
      .cls-1 {
        fill: #fff;
      }

      .cls-2 {
        fill: #333;
      }
    </style>
  </defs>
  <g>
    <path class="cls-2" d="M117.5,278.6c-3-12.2-6.3-25.9-7.8-38.1-2.2-21.8-.4-35.8,1.5-43.2,4.4-7,15.9-19.2,23.3-23.3a25.64,25.64,0,0,0,15.5,5.5,24.8,24.8,0,0,0,24.8-24.8,27.44,27.44,0,0,0-4.4-14.4,37.17,37.17,0,0,0-5.5-65.8,13,13,0,0,0,.4-4.1,28.49,28.49,0,0,0-28.5-28.5,30.41,30.41,0,0,0-14,3.7A37.48,37.48,0,0,0,63.2,51a28.1,28.1,0,0,0-15.5-4.8A28.49,28.49,0,0,0,19.2,74.7a26,26,0,0,0,2.2,10.7A37.39,37.39,0,0,0,0,119a36.82,36.82,0,0,0,15.9,30.3,37.13,37.13,0,0,0-.7,6.7,28.55,28.55,0,0,0,44.4,23.7c6.3,5.5,14,12.9,18.1,18.1,3,8.1,8.9,29.6,2.6,60.6C71.8,298.7,64.4,319,74.4,319H104a27.19,27.19,0,0,1-4.1-14.4C99,293,106.8,282.7,117.5,278.6ZM87.2,188.5c-1.1.4-2.2.7-3.7,1.1-5.2-4.1-12.9-10.3-17.7-16.6a26.92,26.92,0,0,0,4.1-8.1,39.2,39.2,0,0,0,5.5-1.8,49,49,0,0,0,9.6,4.4C86.8,175.9,88.3,185.5,87.2,188.5Zm12.9-1.2a152.47,152.47,0,0,1-4.4-17.7c1.5,0,2.6.4,4.1.4a45.49,45.49,0,0,0,23.6-6.3l3.3,3.3c-7,6.7-18.1,16.6-25.9,20.7C100.9,187.3,100.5,187.3,100.1,187.3Z"/>
    <path class="cls-2" d="M347,126.4,306,95a8.86,8.86,0,0,0-10.3,0L255,126.4a8,8,0,0,0-3.3,6.7v64.7H242A35,35,0,0,0,212.8,213l-53.9,75a8.13,8.13,0,0,1-6.3,3H127.5a14,14,0,0,0,0,28h25.1a35.41,35.41,0,0,0,29.2-15.2l53.6-74.6a8.13,8.13,0,0,1,6.3-3h9.6V310a8.5,8.5,0,0,0,17,0V299.7H333V310a8.62,8.62,0,0,0,8.5,8.5A8.37,8.37,0,0,0,350,310V133.4A7.5,7.5,0,0,0,347,126.4Zm-69.1,24.7a9.73,9.73,0,0,1,9.6-9.6h27.3a9.73,9.73,0,0,1,9.6,9.6v28.5a9.73,9.73,0,0,1-9.6,9.6H287.5a9.73,9.73,0,0,1-9.6-9.6Zm55.4,131.6H268.6V263.5h64.7Zm0-36.2H268.6V227.3h64.7Z"/>
  </g>
</svg>
