<svg id="Layer_1" data-name="Layer 1" xmlns="http://www.w3.org/2000/svg" viewBox="0 0 36 36">
  <defs>
    <style>
      .cls-1 {
        fill: none;
      }

      .cls-2 {
        fill: #fff;
      }
    </style>
  </defs>
  <path class="cls-1" d="M0,0H36V36H0Z"/>
  <path class="cls-2" d="M26.34,28.55a2.17,2.17,0,0,1-1.56-.65L18,21.12,11.22,27.9A2.21,2.21,0,0,1,7.6,25.37,1.89,1.89,0,0,1,7.92,25c0-.06.12-.12.18-.18L14.88,18,8.1,11.22A2.21,2.21,0,0,1,10.63,7.6a1.89,1.89,0,0,1,.37.32l.18.18L18,14.88,24.78,8.1a2.14,2.14,0,0,1,1.55-.62,2.19,2.19,0,0,1,1.58,3.74L21.12,18l6.78,6.78a2.21,2.21,0,0,1-1.56,3.77Z"/>
</svg>
