<svg xmlns="http://www.w3.org/2000/svg" xmlns:xlink="http://www.w3.org/1999/xlink" viewBox="0 0 455.36 576.25">
  <defs>
    <style>
      .cls-1 {
        fill: #fff;
      }

      .cls-2 {
        filter: url(#shadow-filter);
      }

      .cls-3 {
        fill: #ff7c1a;
      }
    </style>
    <filter id="shadow-filter" x="-50%" y="-50%" width="200%" height="200%" name="shadow-filter">
      <feOffset result="shadowOffsetOuter1" dx="10" dy="10" in="SourceAlpha"/>
      <feGaussianBlur result="shadowBlurOuter1" stdDeviation="14" in="shadowOffsetOuter1"/>
      <feColorMatrix result="shadowMatrixOuter1" values="0 0 0 0 0 0 0 0 0 0 0 0 0 0 0 0 0 0 0.5 0" in="shadowBlurOuter1"/>
      <feMerge>
        <feMergeNode in="shadowMatrixOuter1"/>
        <feMergeNode in="SourceGraphic"/>
      </feMerge>
    </filter>
  </defs>
  <g id="Sports_Markers_copy" data-name="Sports Markers copy">
    <g class="cls-2">
      <path class="cls-3" d="M251.39,554.5a7,7,0,0,1-4.61-1.73,693.22,693.22,0,0,1-85-92.86c-56.66-74.37-85.39-143.77-85.39-206.27a175,175,0,1,1,350,0c0,62.51-28.73,131.91-85.4,206.28a693.34,693.34,0,0,1-85,92.88A7,7,0,0,1,251.39,554.5Z" transform="translate(-24.5 -27.42)"/>
    </g>
    <path class="cls-1" d="M251.39,397.5c-80.51,0-146-65.5-146-146s65.49-146,146-146,146,65.5,146,146S331.89,397.5,251.39,397.5ZM122.2,261.1a129.62,129.62,0,0,0,258.89-9.6c0-.44,0-.89,0-1.35a127,127,0,0,0-17.75,2.38l2,9.79a8.16,8.16,0,0,1-6.39,9.58,8.7,8.7,0,0,1-1.61.16,8.17,8.17,0,0,1-8-6.55l-1.73-8.66a130.09,130.09,0,0,0-16.38,6.89l2.25,6.32a8.15,8.15,0,1,1-15.35,5.46l-1.21-3.42a131.58,131.58,0,0,0-14.59,11.33l5.45,5.45a8.17,8.17,0,0,1,0,11.52,8.16,8.16,0,0,1-11.52,0l-5.27-5.28a131.89,131.89,0,0,0-10.54,14.07l6.16,2.46a8.15,8.15,0,0,1-3,15.72,8.26,8.26,0,0,1-3-.58l-8.17-3.27a127.93,127.93,0,0,0-8.6,23.1,8.13,8.13,0,0,1-10,5.82A8.16,8.16,0,0,1,248,342.5a143.53,143.53,0,0,1,9.22-25l-7.42-3a8.15,8.15,0,0,1,6-15.13l9.21,3.69a146.1,146.1,0,0,1,14.34-19.48l-7.75-7.76a8.14,8.14,0,1,1,11.51-11.51l7.63,7.62a148,148,0,0,1,20.49-15.55l-3.88-10.9a8.13,8.13,0,0,1,4.94-10.4,8,8,0,0,1,2.73-.48,8.15,8.15,0,0,1,7.67,5.42l3,8.3a146.47,146.47,0,0,1,18.65-7.56l-1.19-6a8.16,8.16,0,0,1,6.39-9.58,8.68,8.68,0,0,1,1.6-.16,8.16,8.16,0,0,1,8,6.55l1,5a144.93,144.93,0,0,1,19.71-2.64A129.58,129.58,0,0,0,122,244.8c1,0,1.93.09,2.9.09a124.46,124.46,0,0,0,17.21-1.23l-1.78-8.87a8.16,8.16,0,0,1,6.39-9.59,8.66,8.66,0,0,1,1.6-.15,8.15,8.15,0,0,1,8,6.54l1.79,8.93a130.14,130.14,0,0,0,22.77-8.5l-3.24-8.1a8.17,8.17,0,0,1,4.54-10.59,8.36,8.36,0,0,1,3-.58,8.1,8.1,0,0,1,7.56,5.12l2.46,6.15a130.32,130.32,0,0,0,14.11-10.48L204,208.22a8.15,8.15,0,0,1,11.52-11.52l5.47,5.47a129.6,129.6,0,0,0,11.4-14.57l-3.51-1.25A8.14,8.14,0,1,1,234.37,171l6.41,2.28A127.37,127.37,0,0,0,249.9,150a8.18,8.18,0,0,1,7.84-6,8.56,8.56,0,0,1,2.19.3,8.13,8.13,0,0,1,5.66,10,143.22,143.22,0,0,1-9.36,24.46l8.18,2.91a8.15,8.15,0,0,1-2.73,15.82,8.31,8.31,0,0,1-2.74-.47l-10.77-3.84a145.77,145.77,0,0,1-15.63,20.49l7.58,7.58A8.15,8.15,0,1,1,228.6,232.8l-7.71-7.71a148.32,148.32,0,0,1-19.54,14.26l3.71,9.25a8.15,8.15,0,0,1-15.13,6.05l-3-7.5a146.63,146.63,0,0,1-25.63,9.35l1.16,5.81a8.16,8.16,0,0,1-6.39,9.59,8.68,8.68,0,0,1-1.6.16,8.16,8.16,0,0,1-8-6.55l-1.17-5.84a144.15,144.15,0,0,1-20.41,1.5C124,261.17,123.08,261.14,122.2,261.1Z" transform="translate(-24.5 -27.42)"/>
  </g>
</svg>
