<svg xmlns="http://www.w3.org/2000/svg" xmlns:xlink="http://www.w3.org/1999/xlink" viewBox="0 0 455.36 576.25">
  <defs>
    <style>
      .cls-1 {
        fill: #fff;
      }

      .cls-2 {
        filter: url(#shadow-filter);
      }

      .cls-3 {
        fill: #ff7c1a;
      }
    </style>
    <filter id="shadow-filter" x="-50%" y="-50%" width="200%" height="200%" name="shadow-filter">
      <feOffset result="shadowOffsetOuter1" dx="10" dy="10" in="SourceAlpha"/>
      <feGaussianBlur result="shadowBlurOuter1" stdDeviation="14" in="shadowOffsetOuter1"/>
      <feColorMatrix result="shadowMatrixOuter1" values="0 0 0 0 0 0 0 0 0 0 0 0 0 0 0 0 0 0 0.5 0" in="shadowBlurOuter1"/>
      <feMerge>
        <feMergeNode in="shadowMatrixOuter1"/>
        <feMergeNode in="SourceGraphic"/>
      </feMerge>
    </filter>
  </defs>
  <g id="Sports_Markers_copy" data-name="Sports Markers copy">
    <g class="cls-2">
      <path class="cls-3" d="M251.39,554.5a7,7,0,0,1-4.61-1.73,693.22,693.22,0,0,1-85-92.86c-56.66-74.37-85.39-143.77-85.39-206.27a175,175,0,1,1,350,0c0,62.51-28.73,131.91-85.4,206.28a693.34,693.34,0,0,1-85,92.88A7,7,0,0,1,251.39,554.5Z" transform="translate(-24.5 -27.42)"/>
    </g>
    <path class="cls-1" d="M250.84,397.5c-80.5,0-146-65.5-146-146s65.5-146,146-146,146,65.5,146,146S331.35,397.5,250.84,397.5Zm-23.08-16.74a130.33,130.33,0,0,0,53-1.4L304,336.73l-15.73-21-67.15-1.18-17.53,21.91ZM151,336.63a131,131,0,0,0,56.76,38.92l-18.56-34Zm150.7,36a132,132,0,0,0,47.8-34.48L317.81,343Zm14.63-44.65,46-7.07A131,131,0,0,0,382,259.2l-29-25.79-33.86,11.28-18.63,62.12Zm-124.16-1.26,17-21.22-19.67-59-41.5-13.1-28.23,25.1a131.06,131.06,0,0,0,19.06,61.41Zm94.4-26L304.14,242l-18.85-12.56a7.55,7.55,0,1,1,8.37-12.56l20.43,13.61,33.74-11.25,6.54-48.36a132.32,132.32,0,0,0-49.78-39.12L258,153.23V193l20.24,13.5A7.54,7.54,0,0,1,274,220.34h0a7.57,7.57,0,0,1-4.18-1.26l-19-12.71-46.57,36.68L223,299.51Zm95-62A131.49,131.49,0,0,0,367,190.28L362.7,221.9Zm-247.5-47a129,129,0,0,0-13.76,46.16l17.86-15.87ZM193.84,232l49-38.62V153.23l-46.19-21.32a132.39,132.39,0,0,0-50.1,39.85l6.4,47.35Zm56.57-91.92,33.82-15.61a131.61,131.61,0,0,0-67.34.14Z" transform="translate(-24.5 -27.42)"/>
  </g>
</svg>
