<svg xmlns="http://www.w3.org/2000/svg" xmlns:xlink="http://www.w3.org/1999/xlink" viewBox="0 0 455.36 576.25">
  <defs>
    <style>
      .cls-1 {
        fill: #fff;
      }

      .cls-2 {
        filter: url(#shadow-filter);
      }

      .cls-3 {
        fill: #ff7c1a;
      }
    </style>
    <filter id="shadow-filter" x="-50%" y="-50%" width="200%" height="200%" name="shadow-filter">
      <feOffset result="shadowOffsetOuter1" dx="10" dy="10" in="SourceAlpha"/>
      <feGaussianBlur result="shadowBlurOuter1" stdDeviation="14" in="shadowOffsetOuter1"/>
      <feColorMatrix result="shadowMatrixOuter1" values="0 0 0 0 0 0 0 0 0 0 0 0 0 0 0 0 0 0 0.5 0" in="shadowBlurOuter1"/>
      <feMerge>
        <feMergeNode in="shadowMatrixOuter1"/>
        <feMergeNode in="SourceGraphic"/>
      </feMerge>
    </filter>
  </defs>
  <g id="Sports_Markers_copy" data-name="Sports Markers copy">
    <g class="cls-2">
      <path class="cls-1" d="M251.39,554.5a7,7,0,0,1-4.61-1.73,693.22,693.22,0,0,1-85-92.86c-56.66-74.37-85.39-143.77-85.39-206.27a175,175,0,1,1,350,0c0,62.51-28.73,131.91-85.4,206.28a693.34,693.34,0,0,1-85,92.88A7,7,0,0,1,251.39,554.5Z" transform="translate(-24.5 -27.42)"/>
    </g>
    <path class="cls-3" d="M251.39,75.5a177.27,177.27,0,0,0-176,178.14c0,62.72,28.8,132.33,85.6,206.88a692,692,0,0,0,85.13,93,8,8,0,0,0,10.53,0,692.12,692.12,0,0,0,85.14-93c56.8-74.55,85.6-144.16,85.6-206.88a177.28,177.28,0,0,0-176-178.14Zm0,461.17c-28.22-26.31-160-156-160-283a160,160,0,0,1,320,0C411.39,380.68,279.6,510.36,251.39,536.67ZM251.64,108l-.52,0c-74.73.27-137.41,58.88-142.71,133.44l-.08,1.09c-.22,3.05-.43,6.09-.43,9.2,0,79.25,64.48,143.74,143.74,143.74S395.38,331,395.38,251.75,330.9,108,251.64,108Z" transform="translate(-24.5 -27.42)"/>
  </g>
</svg>
