<svg xmlns="http://www.w3.org/2000/svg" xmlns:xlink="http://www.w3.org/1999/xlink" viewBox="0 0 455.36 576.25">
  <defs>
    <style>
      .cls-1 {
        fill: #fff;
      }

      .cls-2 {
        filter: url(#shadow-filter);
      }

      .cls-3 {
        fill: #ff7c1a;
      }
    </style>
    <filter id="shadow-filter" x="-50%" y="-50%" width="200%" height="200%" name="shadow-filter">
      <feOffset result="shadowOffsetOuter1" dx="10" dy="10" in="SourceAlpha"/>
      <feGaussianBlur result="shadowBlurOuter1" stdDeviation="14" in="shadowOffsetOuter1"/>
      <feColorMatrix result="shadowMatrixOuter1" values="0 0 0 0 0 0 0 0 0 0 0 0 0 0 0 0 0 0 0.5 0" in="shadowBlurOuter1"/>
      <feMerge>
        <feMergeNode in="shadowMatrixOuter1"/>
        <feMergeNode in="SourceGraphic"/>
      </feMerge>
    </filter>
  </defs>
  <g id="Sports_Markers_copy" data-name="Sports Markers copy">
    <g class="cls-2">
      <path class="cls-3" d="M251.39,554.5a7,7,0,0,1-4.61-1.73,693.22,693.22,0,0,1-85-92.86c-56.66-74.37-85.39-143.77-85.39-206.27a175,175,0,1,1,350,0c0,62.51-28.73,131.91-85.4,206.28a693.34,693.34,0,0,1-85,92.88A7,7,0,0,1,251.39,554.5Z" transform="translate(-24.5 -27.42)"/>
    </g>
    <path class="cls-1" d="M251,398.59A147,147,0,0,1,143.2,351.23a2.85,2.85,0,0,1-.36-.3,2.66,2.66,0,0,1-.39-.51,146.1,146.1,0,0,1-38-98.38c0-80.8,65.74-146.54,146.55-146.54s146.54,65.74,146.54,146.55a148,148,0,0,1-1.31,19.32c0,.13,0,.25,0,.38C386.36,344.08,324,398.59,251,398.59ZM159.24,345.5a130.72,130.72,0,0,0,181.1,2.25l-56.13-56.14a74,74,0,0,0-15.73,57.6A7.75,7.75,0,0,1,262,358a7.74,7.74,0,0,1-8.83-6.5,89.29,89.29,0,0,1,20.06-70.92l-24.54-24.55Zm191.8-9a130.73,130.73,0,0,0,29-61.73l-2-1.12a74.19,74.19,0,0,0-82.92,6.91ZM121.1,234.63A130.82,130.82,0,0,0,148.81,334L237.7,245.1l-24.51-24.5a89.59,89.59,0,0,1-57.59,21A88.67,88.67,0,0,1,121.1,234.63Zm163,34.95a89.7,89.7,0,0,1,97.74-11.41c.12-2.23.17-4.22.17-6.13a130,130,0,0,0-37.58-91.73l-84.8,84.79Zm-35.43-35.44,84.25-84.26A130.67,130.67,0,0,0,166.52,152l46.66,46.66a74.08,74.08,0,0,0,16.5-45.34,7.71,7.71,0,0,1,7.62-7.63h.31A7.64,7.64,0,0,1,243,148a7.74,7.74,0,0,1,2.19,5.52,89.43,89.43,0,0,1-21,56.08ZM124.19,219a74.2,74.2,0,0,0,78-9.36l-46.95-47A131.16,131.16,0,0,0,124.19,219Z" transform="translate(-24.5 -27.42)"/>
  </g>
</svg>
