<svg xmlns="http://www.w3.org/2000/svg" xmlns:xlink="http://www.w3.org/1999/xlink" viewBox="0 0 455.36 576.25">
  <defs>
    <style>
      .cls-1 {
        fill: #fff;
      }

      .cls-2 {
        filter: url(#shadow-filter);
      }

      .cls-3 {
        fill: #ff7c1a;
      }
    </style>
    <filter id="shadow-filter" x="-50%" y="-50%" width="200%" height="200%" name="shadow-filter">
      <feOffset result="shadowOffsetOuter1" dx="10" dy="10" in="SourceAlpha"/>
      <feGaussianBlur result="shadowBlurOuter1" stdDeviation="14" in="shadowOffsetOuter1"/>
      <feColorMatrix result="shadowMatrixOuter1" values="0 0 0 0 0 0 0 0 0 0 0 0 0 0 0 0 0 0 0.5 0" in="shadowBlurOuter1"/>
      <feMerge>
        <feMergeNode in="shadowMatrixOuter1"/>
        <feMergeNode in="SourceGraphic"/>
      </feMerge>
    </filter>
  </defs>
  <g id="Sports_Markers_copy" data-name="Sports Markers copy">
    <g class="cls-2">
      <path class="cls-3" d="M251.39,554.5a7,7,0,0,1-4.61-1.73,693.22,693.22,0,0,1-85-92.86c-56.66-74.37-85.39-143.77-85.39-206.27a175,175,0,1,1,350,0c0,62.51-28.73,131.91-85.4,206.28a693.34,693.34,0,0,1-85,92.88A7,7,0,0,1,251.39,554.5Z" transform="translate(-24.5 -27.42)"/>
    </g>
    <path class="cls-1" d="M192,352.09a45.58,45.58,0,0,1-34.2-75.76l1.27-1.44,12.2,9.94-1.41,1.56a29.89,29.89,0,0,0,12.19,48.31,29.9,29.9,0,0,0,29.4-5.5l11.4-9.77.83.07c.31,0,.62,0,.93,0a10.59,10.59,0,0,0,3.21-.49,11.17,11.17,0,0,0,6.69-5.8l2.6-5.27c.13-.25.23-.52.34-.78l.18-.45,91.53-78.44,4.74-4.08a30,30,0,0,0,3.24-42.18l-.57-.66A29.94,29.94,0,0,0,295,178.81l-4.74,4.07-19.5,16.72-1-2.57a67.39,67.39,0,0,0-5.57-10.82l-.93-1.46,10.68-9.15-.45-.52a.71.71,0,0,0-.52-.21.74.74,0,0,0-.48.17l-10,8.57-1.29-1.7a64.76,64.76,0,0,0-4.75-5.62L255,174.77l11.25-9.64a12.31,12.31,0,0,1,17,1.27l.91,1.07.68-.59a45.61,45.61,0,0,1,59.38,69.24l-.71.61.89,1a12.09,12.09,0,0,1-1.31,17l-12.74,10.91a12,12,0,0,1-17-1.3l-.89-1L252.25,315l.88,1a12.1,12.1,0,0,1-1.31,17l-12.74,10.92a12.07,12.07,0,0,1-17-1.31l-.89-1A45.61,45.61,0,0,1,192,352.09ZM231.85,334a.66.66,0,0,0,.52.24.7.7,0,0,0,.44-.16L243,325.31a.68.68,0,0,0,.24-.47.75.75,0,0,0-.16-.5l-.45-.52-11.23,9.63Zm91.25-78.22a.74.74,0,0,0,.53.21.78.78,0,0,0,.48-.17l10.14-8.7a.68.68,0,0,0,.08-1l-.45-.52-11.22,9.62Zm-98.45,57.8a4.81,4.81,0,0,1-2.68-.83l-16.61-11.2a4.37,4.37,0,0,1-.72.06h-7a5.08,5.08,0,0,1-4.51-2.95l-3.08-6.22-35-28.5h-2a6,6,0,0,1-5.74-4.79,159.73,159.73,0,0,1-3.57-17.39v-.15a7.05,7.05,0,0,1,1.83-5.36,6.59,6.59,0,0,1,4.77-2.12c3.05,0,5.42,2.24,6,5.7s1.19,7.06,2,10.72h5.14l2.16-7.6c2.43-8.48,9.48-14.18,17.55-14.18h20.83l11.66-13.61a17.46,17.46,0,0,1,13.38-6.35h24.74a48.42,48.42,0,0,0-7.61-15c-8.44-11.13-21.59-17.95-39.08-20.28a47.59,47.59,0,0,0-6.17-.41,44.14,44.14,0,0,0-24,7c-14.45,9.18-21.76,24.25-21.75,44.8,0,4.05-3.37,6.23-6.55,6.23a6.42,6.42,0,0,1-4.19-1.47,5.81,5.81,0,0,1-2-4.54c0-14.09,2.9-26.38,8.73-36.55a58,58,0,0,1,49.8-28.9,59.92,59.92,0,0,1,7.78.52c49.46,6.57,58,43.26,59.41,54.34a7.17,7.17,0,0,1-1.29,5.16,5.72,5.72,0,0,1-4.62,2.43H229.19a5.11,5.11,0,0,0-3.88,1.91l-13.69,16a5.91,5.91,0,0,1-2.71,1.81v13.19a4,4,0,0,1-3.88,4.19,4,4,0,0,1-3.85-3.7v13.69a4,4,0,0,1,3.85-3.7,4,4,0,0,1,3.88,4.19v8.91c.09.15.17.3.25.45l3.44,7L230,297.77a6,6,0,0,1,1.82,7.55l-2.6,5.27a5.18,5.18,0,0,1-3.11,2.73A4.52,4.52,0,0,1,224.65,313.54ZM201.92,290.9l1-2-1-2h-1.51l-1,2,1,2Zm-13.5-27.85V247.12h-5a1.94,1.94,0,0,0-.6,1l-2.39,8.39Z" transform="translate(-24.5 -27.42)"/>
    <path class="cls-1" d="M251.75,397.17C171.39,397.17,106,331.79,106,251.43c0-3.2.22-6.32.44-9.34l.07-1.09c5.38-75.59,68.94-135,144.71-135.29l.52,0c80.36,0,145.74,65.38,145.74,145.74S332.11,397.17,251.75,397.17Zm.17-276-.67,0a130.7,130.7,0,0,0-128.1,110.75l-1.32,11.48v0c-.19,2.63-.39,5.34-.39,8a130.31,130.31,0,0,0,259.24,18.82l1.15-11.42c.15-2.64.23-5.09.23-7.39C382.06,179.65,323.68,121.2,251.92,121.12Z" transform="translate(-24.5 -27.42)"/>
  </g>
</svg>
