<svg xmlns="http://www.w3.org/2000/svg" viewBox="0 0 352 480">
  <defs>
    <style>
      .cls-1 {
        fill: #ef7b1b;
      }
    </style>
  </defs>
  <g id="Sports_Markers_copy" data-name="Sports Markers copy">
    <g>
      <path class="cls-1" d="M176,0A177.28,177.28,0,0,0,0,178.14C0,240.86,28.8,310.47,85.6,385a692.12,692.12,0,0,0,85.14,93,8,8,0,0,0,10.53,0,692,692,0,0,0,85.13-93C323.2,310.47,352,240.86,352,178.14A177.27,177.27,0,0,0,176,0Zm0,461.17c-28.21-26.31-160-156-160-283a160,160,0,0,1,320,0C336,305.18,204.22,434.86,176,461.17Z"/>
      <path class="cls-1" d="M176.25,32.51l-.51,0C101,32.8,38.32,91.41,33,166l-.08,1.09c-.21,3.05-.43,6.09-.43,9.2C32.51,255.51,97,320,176.25,320S320,255.51,320,176.25,255.51,32.51,176.25,32.51Z"/>
    </g>
  </g>
</svg>
