<svg xmlns="http://www.w3.org/2000/svg" xmlns:xlink="http://www.w3.org/1999/xlink" viewBox="0 0 455.36 576.25">
  <defs>
    <style>
      .cls-1 {
        fill: #fff;
      }

      .cls-2 {
        filter: url(#shadow-filter);
      }

      .cls-3 {
        fill: #ff7c1a;
      }
    </style>
    <filter id="shadow-filter" x="-50%" y="-50%" width="200%" height="200%" name="shadow-filter">
      <feOffset result="shadowOffsetOuter1" dx="10" dy="10" in="SourceAlpha"/>
      <feGaussianBlur result="shadowBlurOuter1" stdDeviation="14" in="shadowOffsetOuter1"/>
      <feColorMatrix result="shadowMatrixOuter1" values="0 0 0 0 0 0 0 0 0 0 0 0 0 0 0 0 0 0 0.5 0" in="shadowBlurOuter1"/>
      <feMerge>
        <feMergeNode in="shadowMatrixOuter1"/>
        <feMergeNode in="SourceGraphic"/>
      </feMerge>
    </filter>
  </defs>
  <g id="Sports_Markers_copy" data-name="Sports Markers copy">
    <g class="cls-2">
      <path class="cls-3" d="M251.39,554.5a7,7,0,0,1-4.61-1.73,693.22,693.22,0,0,1-85-92.86c-56.66-74.37-85.39-143.77-85.39-206.27a175,175,0,1,1,350,0c0,62.51-28.73,131.91-85.4,206.28a693.34,693.34,0,0,1-85,92.88A7,7,0,0,1,251.39,554.5Z" transform="translate(-24.5 -27.42)"/>
    </g>
    <path class="cls-3" d="M251.39,75.5a177.27,177.27,0,0,0-176,178.14c0,62.72,28.8,132.33,85.6,206.88a692,692,0,0,0,85.13,93,8,8,0,0,0,10.53,0,692.12,692.12,0,0,0,85.14-93c56.8-74.55,85.6-144.16,85.6-206.88A177.28,177.28,0,0,0,251.39,75.5Zm0,461.17c-28.22-26.31-160-156-160-283a160,160,0,0,1,320,0C411.39,380.68,279.6,510.36,251.39,536.67Z" transform="translate(-24.5 -27.42)"/>
    <path class="cls-1" d="M251.39,397.5a145,145,0,0,1-103.63-43.27,7.71,7.71,0,0,1-1.23-1.28A145.17,145.17,0,0,1,105.38,251.5c0-80.5,65.5-146,146-146s146,65.5,146,146a146.4,146.4,0,0,1-3.64,32.26v.08l0,.16A146.22,146.22,0,0,1,251.39,397.5Zm-29.88-19.3a129.7,129.7,0,0,0,27.32,3.47,145.63,145.63,0,0,1-19.63-73c0-42,14.75-67.49,22-77.52A129.72,129.72,0,0,0,190,186a130.72,130.72,0,0,0-40.27,94.1,216.91,216.91,0,0,0,10,63.85,129.5,129.5,0,0,0,39.36,26.79c-18.51-37.6-23.11-83.93-11.91-122.27a8,8,0,0,1,7.58-5.69,8.05,8.05,0,0,1,2.22.32,7.89,7.89,0,0,1,5.37,9.8C190.7,292.85,198.39,343.11,221.51,378.2Zm23.85-79.34c-.24,3.58-.36,6.73-.36,9.78a129.42,129.42,0,0,0,21.84,72.12,130.31,130.31,0,0,0,93.34-57.82c-23,16.31-50.64,24.34-70.8,28.26a7.61,7.61,0,0,1-1.52.15,7.9,7.9,0,0,1-1.51-15.65c31.47-6.13,72.94-20.73,92-55.52a130.35,130.35,0,0,0,3.23-28.68c0-1.67,0-3.41-.13-5.25-13.65,16.44-33,29.33-57.73,38.38a7.88,7.88,0,0,1-10.14-4.7,7.91,7.91,0,0,1,4.7-10.14c28.62-10.49,48.83-26.27,60.09-46.91a129.21,129.21,0,0,0-10.11-28.64C356.12,212,336.59,225,310.15,233A189.32,189.32,0,0,1,264,240.54c-4.13,5.77-12.7,19.92-16.74,42.46a250.92,250.92,0,0,0,39.11-4.45,7.71,7.71,0,0,1,1.53-.15,7.9,7.9,0,0,1,1.49,15.66A260,260,0,0,1,245.36,298.86ZM143.66,178.5a129.8,129.8,0,0,0-7.23,134A227.28,227.28,0,0,1,134,280.07a145.27,145.27,0,0,1,38.66-98.9,130.63,130.63,0,0,0-26.29-2.7Q145,178.47,143.66,178.5ZM156,163a145.76,145.76,0,0,1,110,61.59,175.53,175.53,0,0,0,44.67-8.6c23.57-8.1,39.89-20.69,48.54-37.42a130.1,130.1,0,0,0-104.07-57.24c3.95.78,7.79,1.65,11.48,2.6a145.12,145.12,0,0,1,52.85,25.86,7.9,7.9,0,1,1-9.67,12.49,129.43,129.43,0,0,0-47.13-23.05,218.66,218.66,0,0,0-53.12-6.62c-4.14,0-8.18.13-12,.39a132.37,132.37,0,0,0-13.09,6.89,230.45,230.45,0,0,1,37.8,6.24,145.9,145.9,0,0,1,66.16,37.53,7.91,7.91,0,0,1-11.13,11.23,130,130,0,0,0-59-33.46,221.23,221.23,0,0,0-53-6.62h-.95C161.45,157.4,158.67,160.14,156,163Z" transform="translate(-24.5 -27.42)"/>
  </g>
</svg>
